<?xml version="1.0" encoding="UTF-8" standalone="no"?>
<!-- Created with Inkscape (http://www.inkscape.org/) -->

<svg
   width="60"
   height="60"
   viewBox="0 0 135.46666 135.46667"
   version="1.1"
   id="svg397"
   xml:space="preserve"
   inkscape:version="1.2.2 (732a01da63, 2022-12-09)"
   sodipodi:docname="tag-logo-colorido-vazio.svg"
   xmlns:inkscape="http://www.inkscape.org/namespaces/inkscape"
   xmlns:sodipodi="http://sodipodi.sourceforge.net/DTD/sodipodi-0.dtd"
   xmlns="http://www.w3.org/2000/svg"
   xmlns:svg="http://www.w3.org/2000/svg"><sodipodi:namedview
     id="namedview399"
     pagecolor="#505050"
     bordercolor="#ffffff"
     borderopacity="1"
     inkscape:showpageshadow="0"
     inkscape:pageopacity="0"
     inkscape:pagecheckerboard="1"
     inkscape:deskcolor="#505050"
     inkscape:document-units="mm"
     showgrid="false"
     inkscape:zoom="1.0444209"
     inkscape:cx="401.17926"
     inkscape:cy="310.21976"
     inkscape:window-width="1920"
     inkscape:window-height="1009"
     inkscape:window-x="1912"
     inkscape:window-y="-8"
     inkscape:window-maximized="1"
     inkscape:current-layer="layer1" /><defs
     id="defs394" /><g
     inkscape:label="Camada 1"
     inkscape:groupmode="layer"
     id="layer1"><path
       id="path1105"
       style="fill:#fbbb00;fill-opacity:1;stroke-width:0.263004"
       d="m 52.329666,4.2796249 c -0.291003,0 -8.710792,2.1889655 -18.71079,4.8639067 -9.999998,2.6749444 -18.447927,4.9796774 -18.773395,5.1223514 -0.325452,0.142675 -0.592337,0.468139 -0.592337,0.722363 0,0.254223 1.496225,1.960891 3.324472,3.793204 3.324087,3.33148 3.322972,3.332002 1.091571,5.921767 -1.227272,1.424366 -2.882098,3.477227 -3.677627,4.562119 -0.795536,1.084889 -2.047356,2.934461 -2.783505,4.111043 -0.736145,1.176588 -2.039724,3.543945 -2.8958675,5.260404 -0.8561467,1.716456 -1.9874257,4.245784 -2.5138212,5.619979 -0.5263954,1.374193 -1.2485808,3.479358 -1.6052517,4.677697 -0.3566708,1.198339 -0.9487065,3.512968 -1.3146995,5.144826 -0.3659961,1.631851 -0.8439263,4.497907 -1.0626753,6.368025 -0.218749,1.870114 -0.3981002,5.294282 -0.3981002,7.610486 0,2.316208 0.1731479,5.690857 0.3852586,7.498124 0.2121014,1.807264 0.6226425,4.431705 0.9117814,5.833475 0.2891388,1.401777 0.8410746,3.650527 1.2264108,4.997141 0.3853362,1.346618 1.2221521,3.801486 1.8588788,5.454641 0.6367298,1.653158 1.787585,4.257737 2.557164,5.786924 0.7695788,1.529193 1.9030668,3.607349 2.5202418,4.619909 0.617179,1.01256 1.663477,2.61057 2.324402,3.55081 0.660922,0.94024 1.919301,2.59755 2.796344,3.68244 0.877043,1.08489 2.48195,2.90858 3.566863,4.05326 1.08492,1.14468 3.274339,3.20054 4.865513,4.56854 1.591174,1.368 4.481652,3.54152 6.422604,4.8302 1.940954,1.28867 5.077663,3.09963 6.969994,4.02436 1.892325,0.92473 4.606251,2.11315 6.032527,2.63903 1.42628,0.52587 4.043931,1.35239 5.815819,1.83801 1.771895,0.48562 4.391543,1.07783 5.822243,1.3163 1.430694,0.23848 3.430769,0.53168 4.443329,0.65013 1.012567,0.11844 3.378321,0.19905 5.258798,0.17979 3.419061,-0.0348 3.419303,-0.0344 3.513891,-0.69186 0.05203,-0.36163 0.0087,-4.24284 -0.09633,-8.62501 -0.154137,-6.43559 -0.263884,-8.0413 -0.573074,-8.35051 -0.275378,-0.27537 -1.022691,-0.38505 -2.664712,-0.38847 -1.255375,-0.003 -3.488264,-0.17575 -4.961828,-0.38525 -1.473558,-0.2095 -3.900225,-0.68861 -5.392033,-1.06589 -1.491804,-0.37728 -3.895748,-1.15252 -5.342271,-1.72083 -1.446518,-0.56831 -3.781158,-1.65378 -5.188166,-2.41269 -1.407011,-0.7589 -3.645939,-2.14711 -4.97467,-3.08529 -1.328724,-0.93818 -3.624054,-2.85938 -5.101483,-4.26996 -1.477426,-1.41059 -3.338998,-3.365578 -4.136726,-4.343808 -0.797735,-0.978235 -2.125261,-2.785185 -2.95045,-4.01473 -0.825188,-1.229542 -2.18963,-3.654603 -3.030711,-5.390427 -0.841087,-1.735827 -1.942688,-4.459012 -2.448007,-6.050186 -0.505315,-1.591171 -1.10494,-3.839927 -1.332356,-4.997141 -0.227415,-1.15722 -0.534058,-3.10682 -0.682231,-4.332569 -0.148173,-1.225749 -0.267674,-3.71011 -0.264878,-5.522058 0.0028,-1.811945 0.174017,-4.553353 0.378837,-6.091923 0.204833,-1.538571 0.60712,-3.787325 0.895731,-4.997141 0.28858,-1.20982 0.899136,-3.265067 1.356433,-4.566937 0.457301,-1.301867 1.406378,-3.564006 2.107695,-5.026036 0.701317,-1.462031 2.099111,-3.887091 3.106158,-5.39043 1.00705,-1.503335 2.62641,-3.663968 3.59897,-4.801301 1.768289,-2.067871 1.767531,-2.06761 5.748399,1.907036 2.758965,2.75466 4.162161,3.9746 4.570146,3.9746 0.323759,0 0.590523,-0.02951 0.59394,-0.06582 0.0034,-0.03616 2.294889,-8.587994 5.091853,-19.002947 C 50.814902,13.458351 53.048717,4.7895195 52.981371,4.608699 52.914026,4.4278785 52.620643,4.2796218 52.329641,4.2796218 Z" /><path
       id="path1103"
       style="fill:#89bb2d;fill-opacity:1;stroke-width:0.263004"
       d="m 66.221494,2.4512474 c -1.392964,0.011183 -1.76949,0.1062992 -1.950376,0.3242592 -0.272924,0.3288597 -0.260094,0.9620855 0.06582,3.3870775 0.220457,1.640456 0.580716,4.9277889 0.801018,7.3054899 0.220302,2.377701 0.401315,4.809977 0.401315,5.404877 0,0.594896 0.141059,1.224587 0.314627,1.39817 0.205671,0.205671 1.285347,0.31463 3.098131,0.31463 1.529876,0 3.784165,0.121924 5.009986,0.269693 1.225752,0.147769 3.69016,0.628423 5.475506,1.069096 1.785342,0.440669 4.276819,1.194549 5.538111,1.675881 1.261292,0.481322 3.351063,1.408616 4.643987,2.059533 1.29293,0.650916 3.41596,1.885556 4.717827,2.743371 1.301871,0.857824 3.137095,2.19771 4.077336,2.977738 0.940239,0.780029 2.585788,2.308793 3.656758,3.398314 1.07098,1.089523 2.77002,3.044214 3.77555,4.343807 1.00553,1.299594 2.45574,3.431216 3.22334,4.735484 0.76761,1.304272 1.82856,3.316741 2.35651,4.47383 0.52795,1.15709 1.36157,3.303769 1.85246,4.769198 0.49088,1.465432 1.13191,3.832792 1.42546,5.260404 0.29355,1.427612 0.6748,4.174077 0.84757,6.104765 0.24292,2.71551 0.24335,4.323902 0.002,7.101623 -0.17185,1.974923 -0.55313,4.759018 -0.84758,6.186633 -0.29445,1.427609 -0.95437,3.854275 -1.46559,5.392032 -0.51122,1.537754 -1.55716,4.097832 -2.326,5.689006 -0.76885,1.591173 -2.10049,3.956927 -2.95848,5.258798 -0.85799,1.301867 -2.20271,3.125215 -2.98737,4.051649 -0.78466,0.926431 -1.68329,1.992304 -1.99854,2.367744 -0.57317,0.68261 -0.57295,0.68208 -4.759564,-3.467341 -2.891575,-2.865885 -4.313102,-4.100137 -4.594226,-3.992256 -0.223844,0.08589 -0.520416,0.590895 -0.658151,1.123677 -0.137736,0.532776 -2.413281,9.03862 -5.058141,18.90181 -2.644865,9.8632 -4.738835,18.1185 -4.652013,18.3448 0.08682,0.22629 0.380733,0.41255 0.65173,0.41255 0.270998,0 8.875363,-2.24729 19.121735,-4.99233 10.24637,-2.74504 18.72562,-5.14044 18.84242,-5.32462 0.1168,-0.18417 0.21465,-0.39591 0.21682,-0.47033 0.002,-0.0744 -1.52938,-1.66519 -3.40311,-3.53476 -3.40679,-3.39923 -3.40596,-3.40014 -1.76096,-5.2572 0.90475,-1.02138 2.21003,-2.55908 2.90068,-3.41757 0.69066,-0.85849 2.1246,-2.87003 3.18803,-4.47062 1.0634,-1.60059 2.64133,-4.27111 3.50586,-5.934611 0.86452,-1.663499 2.11166,-4.385078 2.77064,-6.048577 0.65904,-1.663499 1.62058,-4.564601 2.13661,-6.445078 0.51606,-1.880481 1.16044,-4.661367 1.43348,-6.180212 0.27305,-1.518846 0.64193,-4.418342 0.81868,-6.443472 0.19508,-2.232116 0.25597,-5.234988 0.15563,-7.62654 -0.091,-2.169781 -0.39867,-5.520039 -0.68383,-7.445148 -0.28516,-1.925113 -0.93535,-5.085259 -1.4447,-7.021362 -0.50932,-1.936108 -1.38615,-4.739065 -1.9488,-6.229975 -0.56265,-1.490907 -1.50562,-3.753304 -2.09644,-5.026037 -0.5908,-1.272726 -1.9018,-3.71074 -2.91192,-5.417715 -1.01009,-1.706979 -2.71094,-4.274484 -3.78037,-5.706662 -1.0694,-1.432188 -2.94914,-3.728754 -4.17685,-5.103089 -1.22772,-1.374335 -3.18629,-3.340756 -4.35183,-4.369491 -1.16554,-1.028733 -3.05595,-2.582888 -4.20094,-3.454498 -1.14499,-0.871607 -3.08214,-2.236589 -4.30528,-3.032314 -1.22315,-0.795728 -3.34845,-2.044486 -4.722649,-2.775478 C 97.828833,9.3789089 95.698689,8.3520529 94.469144,7.8272354 93.239602,7.302418 91.059713,6.4633531 89.6245,5.9635418 88.189289,5.4637305 85.873545,4.7650011 84.478071,4.4112657 83.082597,4.0575304 80.470065,3.5182747 78.671882,3.2121441 76.427151,2.8299919 73.710665,2.6115225 70.005141,2.5138589 68.260277,2.467885 67.057344,2.4444631 66.221566,2.451266 Z" /></g></svg>
